<svg width="960" height="520" viewBox="0 0 960 520" fill="none" xmlns="http://www.w3.org/2000/svg">
  <defs>
    <linearGradient id="bg" x1="0" y1="0" x2="960" y2="520" gradientUnits="userSpaceOnUse">
      <stop stop-color="#E7F0FF"/>
      <stop offset="1" stop-color="#F8EEFF"/>
    </linearGradient>
    <linearGradient id="card" x1="0" y1="0" x2="1" y2="1">
      <stop stop-color="#FFFFFF"/>
      <stop offset="1" stop-color="#F4F8FF"/>
    </linearGradient>
  </defs>
  <rect width="960" height="520" rx="28" fill="url(#bg)"/>
  <circle cx="808" cy="86" r="52" fill="#9BC1FF" fill-opacity="0.4"/>
  <circle cx="132" cy="434" r="72" fill="#C9A8FF" fill-opacity="0.35"/>

  <rect x="92" y="86" width="388" height="332" rx="20" fill="url(#card)" stroke="#CFE0FF" stroke-width="2"/>
  <rect x="120" y="124" width="144" height="14" rx="7" fill="#7BA7F8"/>
  <rect x="120" y="154" width="220" height="10" rx="5" fill="#CDDDF9"/>
  <rect x="120" y="176" width="182" height="10" rx="5" fill="#D8E4FA"/>

  <rect x="120" y="214" width="332" height="74" rx="14" fill="#EFF5FF"/>
  <rect x="136" y="232" width="120" height="9" rx="4.5" fill="#89AEF5"/>
  <rect x="136" y="250" width="198" height="9" rx="4.5" fill="#B9D0F8"/>
  <rect x="136" y="268" width="164" height="9" rx="4.5" fill="#CADBFA"/>

  <rect x="120" y="304" width="150" height="44" rx="12" fill="#2D7BFF"/>
  <rect x="280" y="304" width="150" height="44" rx="12" fill="#FFFFFF" stroke="#BFD4FA"/>

  <rect x="538" y="130" width="326" height="262" rx="20" fill="#FFFFFF" stroke="#D4E2FF" stroke-width="2"/>
  <rect x="568" y="164" width="120" height="12" rx="6" fill="#9C7BFF"/>
  <rect x="568" y="188" width="200" height="10" rx="5" fill="#DACBFF"/>

  <rect x="568" y="224" width="264" height="132" rx="14" fill="#F6F1FF"/>
  <rect x="590" y="248" width="98" height="88" rx="10" fill="#E7DDFF"/>
  <rect x="704" y="248" width="106" height="12" rx="6" fill="#B59AF6"/>
  <rect x="704" y="270" width="86" height="10" rx="5" fill="#CDC0F5"/>
  <rect x="704" y="290" width="74" height="10" rx="5" fill="#D8CEF8"/>
</svg>
